# xmcd
#
# Track frame offsets:
#	150
#	12258
#	24949
#	34309
#	43614
#	53207
#	66653
#	75637
#	86075
#	106251
#	119684
#	134333
#
# Disc length: 1911 seconds
#
# Revision: 3
# Processed by: cddbd v1.5.2PL0 Copyright (c) Steve Scherf et al.
# Submitted via: audiograbber 1.83.01
#
DISCID=a207750c
DTITLE=Various Artist - Rare Trax 57 - Lonesome Riders - Von Wichita nach Holl
DTITLE=ywood - Die Geschichte des singenden Cowboys
DYEAR=2008
DGENRE=Country
TTITLE0=Gene Autry - Back In The Saddle Again
TTITLE1=Roy Rogers - Don't Fence Me In
TTITLE2=Frankie Laine - Raw Hide
TTITLE3=Tex Ritter - Wichita
TTITLE4=Johnny O'Neil - Wagon Train
TTITLE5=Sons Of The Pioneers - Song Of The Wagonmaster
TTITLE6=Shorty Long - Legend Of Wyatt Earp
TTITLE7=Various Artist - Bonanza
TTITLE8=Lee Marvin - Wand'rin' Star
TTITLE9=Peggy Lee - Johnny Guitar
TTITLE10=Robert Mitchum - Foolish Pride
TTITLE11=Dean Martin and Ricky Nelson - My Rifle, My Pony And Me
EXTD=
EXTT0=
EXTT1=
EXTT2=
EXTT3=
EXTT4=
EXTT5=
EXTT6=
EXTT7=
EXTT8=
EXTT9=
EXTT10=
EXTT11=
PLAYORDER=
